<?xml version="1.0" standalone="no"?>
<svg version="1.1" id="Layer_1_99_" xmlns="http://www.w3.org/2000/svg" xmlns:xlink="http://www.w3.org/1999/xlink" x="0px" y="0px" viewBox="0 0 595.276 595.276" enable-background="new 0 0 595.276 595.276" xml:space="preserve">
<path id="color_x5F_7" fill-rule="evenodd" clip-rule="evenodd" fill="#E96257" d="M306.267,263.471l12.448,26.398
	c-0.31,1.534-1.032,2.515-2.269,3.07c-1.225,0.55-3.025,0.642-5.324,0.269c0,0-10.149-24.265-10.284-24.317l1.635,0.012
	C302.642,268.902,306.267,263.471,306.267,263.471z M292.66,268.827c0.027,0.005,0.054,0.008,0.082,0.008l6.279,0.043l-7.218,18.801
	c-0.79,0.896-1.519,1.557-2.147,1.942c-0.644,0.394-1.165,0.511-1.592,0.438s-0.824-0.336-1.224-0.907
	c-0.379-0.543-0.726-1.4-1.024-2.483l6.838-17.824L292.66,268.827z M298.947,256.499l6.917,5.756l-3.66,5.646l-9.172-0.063
	l-3.223-5.469L298.947,256.499z M271.77,235.861c0,0,3.659,2.933,5.605,4.044c1.079,1.479,6.487,8.36,16.642,12.595
	c2.715,1.133,3.865,2.778,4.194,3.283l-8.959,5.756c-0.174-0.106-0.396-0.095-0.558,0.026c-1.395-0.564-7.771-3.44-13.273-11.069
	c-3.085-4.279-3.903-8.201-3.964-11.058C271.431,238.22,271.635,236.626,271.77,235.861z M319.083,235.054
	c0.06,0.084,0.604,1.336,0.645,1.474c0.326,1.085,0.57,2.729,0.209,4.948c-0.715,4.387-3.834,11.051-13.527,19.935l-7.196-5.992
	c-0.279-0.427-1.176-1.651-2.914-2.811c11.328-4.787,18.723-14.003,18.723-14.003C315.09,238.526,318.049,236.174,319.083,235.054z"></path>
<path id="color_x5F_6" fill-rule="evenodd" clip-rule="evenodd" fill="#1ACEBD" d="M450.622,436.67
	c1.381-0.072,2.479,0.139,3.809,1.289c1.249,1.081,1.552,2.838,1.508,4.386c-0.042,1.493-0.387,2.664-0.411,2.749
	c-5.926,0.316-12.396,0.588-19.086,0.694c0.049-4.599,3.7-8.345,8.308-8.498C444.999,437.299,449.241,436.743,450.622,436.67z
	 M137.649,418.348h22.967c1.155,0,2.1,0.947,2.1,2.101v3.207c0,1.155-0.946,2.102-2.1,2.102h-22.967
	c-1.155,0-2.102-0.948-2.102-2.102v-3.207C135.546,419.295,136.494,418.348,137.649,418.348z M185.013,413.778h-16.396
	c2.696-3.637,4.304-8.129,4.304-12.997c0-5.025-1.706-9.653-4.562-13.35c0.249-0.012,0.453-0.209,0.473-0.458
	c0,0,0.397-4.73,1.258-8.911c0.43-2.089,0.994-4.05,1.615-5.136c0.311-0.543,0.632-0.824,0.829-0.882
	c0.197-0.058,0.405-0.027,0.81,0.419c1.739,1.918,2.08,5.102,2.198,7.778c0.059,1.338,0.064,2.532,0.213,3.424
	c0.074,0.445,1.179,1.609,1.593,1.484c0.367-0.109,0.944-1.314,1.05-1.728c0.212-0.828,0.391-1.918,0.577-3.166
	c0.376-2.497,0.781-5.627,1.463-8.375c0.682-2.748,1.683-5.081,2.99-6.003c0.49-0.346,1.421-0.823,2.047-0.787
	c0.209,0.012,2.357,1.339,3.743,2.641c2.792,2.619,3.983,4.937,4.261,7.016c0.278,2.08-0.352,3.974-1.363,5.767
	c-1.013,1.792-2.404,3.458-3.586,5.033c-1.182,1.574-2.184,3.056-2.28,4.615c-0.045,0.716-0.006,1.236,0.187,1.66
	c0.194,0.423,0.645,0.699,1.062,0.708c0.832,0.017,1.601-0.502,2.53-0.995c0.929-0.493,1.956-1.003,2.918-1.156
	c0.962-0.152,1.828-0.004,2.688,0.878c0.408,0.419,0.592,0.858,0.634,1.371c0.041,0.514-0.077,1.111-0.342,1.77
	c-0.528,1.319-1.634,2.86-2.922,4.419c-1.287,1.559-2.754,3.146-3.999,4.629c-1.245,1.482-2.278,2.841-2.694,4.082
	c-0.742,2.224-1.071,3.747-1.214,4.729c-0.143,0.981-0.094,1.472-0.094,1.472C185.007,413.747,185.01,413.763,185.013,413.778z
	 M149.599,413.778H108.7c0.286-7.605,4.637-14.161,10.948-17.571c-0.165,0.159-0.331,0.309-0.489,0.478
	c-0.555,0.592-1.058,1.234-1.291,1.926c-0.117,0.346-0.166,0.717-0.069,1.085c0.098,0.367,0.351,0.701,0.706,0.94
	c0.739,0.495,1.675,0.445,2.611,0.205c0.935-0.241,1.912-0.693,2.815-1.188c1.405-0.771,2.107-1.331,2.581-1.684
	c0.006,0.303-0.052,0.333,0.057,0.796c0.24,1.022,0.837,2.379,2.208,3.749c0.367,0.367,0.718,0.606,1.12,0.667
	c0.402,0.061,0.803-0.131,1.044-0.402c0.479-0.542,0.628-1.328,0.739-2.179c0.159-1.227,0.095-1.981,0.072-2.649
	c0.932,0.807,3.19,2.635,6.475,3.24c0.548,0.101,1.014,0.1,1.371-0.217c0.178-0.159,0.28-0.389,0.306-0.599
	c0.026-0.21-0.005-0.409-0.058-0.606c-0.215-0.791-0.829-1.683-1.553-2.626c-0.628-0.818-1.327-1.621-1.937-2.298
	c3.08,1.094,6.357,3.136,8.875,6.044C148.044,404.139,149.92,408.451,149.599,413.778z M167.355,413.778h-16.758
	c0.319-5.566-1.666-10.138-4.613-13.542c-3.007-3.473-6.997-5.753-10.612-6.752c-0.121-0.033-0.983-0.303-1.061-0.256
	c-0.833-0.186-1.683-0.319-2.548-0.406c3.132-7.573,10.579-12.916,19.283-12.916c11.526,0,20.876,9.348,20.876,20.874
	C171.922,405.701,170.205,410.208,167.355,413.778z M138.907,400.223c-0.012-0.001-0.144,0.051-0.501-0.015
	c-3.667-0.675-6.783-3.617-6.783-3.617c-0.093-0.088-0.216-0.137-0.344-0.137c-0.275,0-0.499,0.225-0.499,0.499
	c0,0.009,0,0.018,0,0.028c0,0,0.109,1.935-0.093,3.49c-0.101,0.777-0.328,1.456-0.495,1.646c-0.084,0.095-0.074,0.088-0.147,0.077
	c-0.073-0.012-0.281-0.102-0.565-0.387c-1.241-1.241-1.739-2.413-1.942-3.272c-0.202-0.858-0.109-1.355-0.109-1.355
	c0.005-0.028,0.007-0.056,0.007-0.085c0-0.274-0.225-0.499-0.499-0.499c-0.111,0-0.218,0.037-0.306,0.105
	c0,0-1.462,1.133-3.181,2.075c-0.86,0.471-1.784,0.892-2.585,1.098c-0.802,0.207-1.436,0.177-1.805-0.07
	c-0.197-0.132-0.264-0.241-0.297-0.365c-0.033-0.125-0.025-0.292,0.049-0.509c0.148-0.436,0.568-1.022,1.075-1.562
	c1.014-1.082,2.529-2.251,2.534-2.408c0.335-0.121,0.665-0.248,1.007-0.353c1.933-0.592,3.984-0.911,6.112-0.911
	c0.407,0,3.888,0.344,4.945,0.6c0.37,0.382,1.79,1.861,3.014,3.455c0.695,0.906,1.256,1.817,1.381,2.279
	C138.907,400.129,138.908,400.188,138.907,400.223c0.002,0,0.002,0.001,0,0.003V400.223z M127.327,387.837l1.809,4.876
	c-0.417,0.008-0.835,0.017-1.246,0.047l-2.053-4.812L127.327,387.837z"></path>
<path id="color_x5F_5" fill-rule="evenodd" clip-rule="evenodd" fill="#FFD2BB" d="M285.18,370.762l9.226,20.871
	c-0.145-0.076-9.27,4.177-21.244,4.893c-5.955,0.356-11.379-0.829-15.101-2.722c-1.861-0.946-3.291-2.07-4.155-3.232
	c-0.864-1.162-1.171-2.324-0.872-3.488c0.313-1.22,1.746-2.393,3.854-3.358c2.109-0.964,4.829-1.724,7.507-2.299
	c5.354-1.151,10.536-1.569,10.536-1.569c0.257-0.022,0.456-0.24,0.456-0.497c0-0.245-0.18-0.455-0.421-0.493
	c0,0-2.66-0.415-4.83-1.275c-1.086-0.43-2.712-1.318-2.679-2.325c0.029-0.901,1.034-1.366,1.588-1.573
	c0.554-0.206,1.288-0.417,2.128-0.624c1.679-0.412,3.788-0.805,5.85-1.145c4.123-0.678,8.051-1.142,8.051-1.142
	C285.111,370.78,285.146,370.773,285.18,370.762z M312.436,239.979c-2.807,2.941-8.758,8.475-16.691,11.783
	c-0.142,0.059-0.25,0.181-0.291,0.33c-0.332-0.181-0.675-0.357-1.053-0.514c-7.592-3.166-12.396-7.787-14.728-10.444
	c5.136,2.532,11.125,4.276,15.717,4.276c3.474,0,8.207-1.317,12.698-3.273C309.589,241.481,311.053,240.753,312.436,239.979z
	 M275.358,181.832c1.005,0.53,20.411,10.65,42.378,10.59c2.061-0.005,3.842-0.131,5.388-0.349c0.08,0.073,0.182,0.118,0.291,0.129
	c4.111,0.395,7.557,4.632,7.557,9.084c0,2.177-1.155,4.233-2.868,5.804c-1.713,1.57-3.973,2.631-6.052,2.831
	c-0.253,0.024-0.449,0.237-0.452,0.491c0,0-1.043,16.517-1.484,18.911c-0.441,2.393-1.075,4.296-1.652,4.937
	c-2.221,2.466-6.372,5.04-10.776,6.959c-4.405,1.919-9.098,3.507-12.298,3.191c-11.668-1.15-17.688-5.615-17.871-5.598
	c-1.901-1.102-5.502-4.534-5.696-4.619c-0.588-1.029-1.136-2.481-1.58-4.201c-0.642-2.489-1.115-5.471-1.457-8.335
	c-0.683-5.727-1.064-11.447-1.324-11.457c-2.177-0.081-4.836-1.171-6.904-2.831c-2.068-1.66-3.521-3.856-3.521-6.083
	c0-4.601,3.915-8.906,8.253-9.069c0.079-0.003,1.72,0.679,3.41,0.585c0.863-0.048,1.81-0.321,2.618-1.02
	c0.809-0.7,1.459-1.807,1.815-3.442C273.803,185.252,275.248,181.977,275.358,181.832z M287.521,227.085
	c-0.272,0.003-0.494,0.228-0.494,0.499c0,0.171,0.087,0.331,0.231,0.421c0,0,1.474,0.951,4.242,1.424
	c2.767,0.473,6.868,0.495,12.242-1.246c0.21-0.064,0.353-0.259,0.353-0.477c0-0.274-0.225-0.499-0.499-0.499
	c-0.055,0-0.109,0.009-0.161,0.027c-5.231,1.695-9.156,1.658-11.768,1.212c-2.611-0.446-3.862-1.276-3.862-1.276L287.521,227.085z
	 M190.823,172.495c0.96-0.116,1.825,0.23,2.749,1.445c1.801,2.371,2.183,7.782,1.986,12.54s-0.892,9.043-0.892,9.043
	c-0.004,0.026,0.812,0.328,0.906,0.194c0,0,1.176-1.709,3.115-3.191c1.94-1.483,4.567-2.698,7.553-1.82
	c3.471,1.02,5.316,3.46,5.771,5.582c0.227,1.062,0.1,2.032-0.299,2.702c-0.398,0.671-1.037,1.088-2.062,1.103
	c-0.857,0.012-1.23-0.181-1.478-0.444c-0.25-0.265-0.396-0.689-0.552-1.216c-0.157-0.526-0.326-1.145-0.759-1.692
	c-0.433-0.546-1.137-0.967-2.176-1.112c-1.501-0.209-2.937,0.4-4.097,1.385c-1.16,0.986-2.071,2.356-2.579,3.798
	c-0.506,1.441-0.617,2.969-0.055,4.252c0.562,1.283,1.831,2.242,3.782,2.478c1.521,0.184,2.583,0.041,3.371-0.326
	c0.789-0.367,1.261-0.947,1.623-1.475c0.362-0.527,0.634-0.999,1.003-1.308c0.37-0.311,0.839-0.518,1.774-0.486
	c0.955,0.034,1.542,0.308,1.92,0.702c0.378,0.396,0.573,0.953,0.604,1.651c0.062,1.395-0.596,3.274-1.541,4.763
	c-0.743,1.172-1.582,1.691-2.749,2.136c-1.167,0.445-2.654,0.779-4.485,1.498c-0.446,0.175-0.721,0.561-0.925,1.007
	c-0.204,0.444-0.344,0.981-0.452,1.586c-0.219,1.211-0.196,8.836-0.152,9.426c0,0-24.781-0.275-24.785-0.32
	c-0.186-6.886-0.218-16.436,0.246-24.874c0.233-4.219,0.588-8.162,1.109-11.342c0.519-3.18,1.24-5.613,2.031-6.705
	c2.38-3.286,4.902-6.967,7.247-9.118C188.745,173.283,189.862,172.611,190.823,172.495z"></path>
<path id="color_x5F_4" fill-rule="evenodd" clip-rule="evenodd" fill="#00CEC9" d="M495.487,471.867H96.592
	c-1.882,0-3.398-1.516-3.398-3.398v-7.794c0-1.88,1.517-3.398,3.398-3.398h398.896c1.881,0,3.398,1.518,3.398,3.398v7.794
	C498.885,470.351,497.368,471.867,495.487,471.867z M301.863,442.351c2.117-0.034,4.246,0.24,6.319,0.827
	c1.313,0.373,2.237,0.634,2.237,0.634c0.034,0.009,0.068,0.015,0.103,0.017l12.844,0.829c0.046,0.003,0.092,0,0.136-0.01
	c0,0,2.482-0.524,5.123-1.083c3.542-0.747,7.208,0.155,10.018,2.404c-7.256-0.069-15.299-0.112-24.337-0.129
	c-8.591-0.017-16.589-0.04-23.993-0.047c0.519-0.285,0.593-0.326,1.377-0.755C294.84,443.314,298.335,442.406,301.863,442.351z
	 M429.429,440.448c0.388-0.236,2.492-1.968,2.688-1.76c0.393,0.417,1.08,2.049,1.319,2.985c0.478,1.874,0.561,4.116,0.567,4.145
	c-1.301,0.013-24.613-0.495-33.388-1.024c0.122-0.091,2.859-1.531,5.727-2.419c2.952-0.914,3.852-1.799,5.17-2.28
	c1.317-0.481,3.255-0.675,8.515-0.229c5.267,0.447,7.013,0.862,8.066,0.911C428.619,440.803,429.041,440.684,429.429,440.448z
	 M293.545,172.07c9.368,0.12,18.957,1.934,29.11,5.166l0.295,4.736c0.013,0.265,1.157-0.635,1.421-0.635
	c0.275,0,2.274-0.033,3.575,0.659c1.36,0.724,2.462,2.045,2.743,3.39c0.28,1.346-0.15,2.739-2.06,3.931s-5.349,2.091-10.893,2.106
	c-22.228,0.061-42.269-10.647-42.269-10.647c-0.159-0.085-1.218,0.879-1.469,1.393c-0.503,1.028-1.158,2.817-1.84,5.959
	c-0.322,1.481-0.875,2.365-1.492,2.899c-0.617,0.533-1.319,0.737-2.019,0.776c-1.4,0.078-3.594-0.563-3.695-0.556L265.958,177
	C275.159,173.507,284.242,171.951,293.545,172.07z"></path>
<path id="color_x5F_3" fill-rule="evenodd" clip-rule="evenodd" fill="#E84393" d="M454.51,450.917v5.271
	c-0.001,0.031,0.002,0.062,0.007,0.092h-47.508c0.005-0.03,0.008-0.061,0.008-0.092v-5.07c6.829,0.678,14.454,1.13,22.541,1.13
	C438.599,452.247,447.098,451.712,454.51,450.917z M338.731,456.279h-47.507c0.005-0.03,0.008-0.06,0.008-0.09v-2.931
	c8.155,0.977,36.155,1.192,47.858-0.595c-0.218,0.061-0.368,0.262-0.365,0.487v3.039
	C338.724,456.219,338.726,456.249,338.731,456.279z M364.008,456.279h-24.292c0.005-0.03,0.008-0.06,0.008-0.09v-3.039
	c0-0.002,0-0.005,0-0.008c0-0.271-0.221-0.494-0.491-0.499c0.041-0.006,0.092-0.011,0.132-0.017
	c5.985-0.948,11.574-1.858,15.679-2.659c2.053-0.401,3.744-0.731,4.919-1.117c3.066-1.004,1.106-2.131,0.771-2.182
	c-0.669-0.102-1.619-0.188-2.839-0.264c-2.438-0.151-5.943-0.258-10.252-0.338c-2.198-0.04-5.108-0.056-7.69-0.084
	c0.003-0.146-0.058-0.287-0.168-0.384c-3.097-2.748-7.314-3.865-11.365-3.01h-0.002l-5.056,1.069l-12.72-0.821
	c-0.039-0.011-0.904-0.256-2.188-0.62c-1.445-0.409-2.915-0.672-4.391-0.792c-4.428-0.36-8.899,0.574-12.852,2.739h-0.002
	c-1.686,0.924-2.962,1.623-2.962,1.623c-0.006,0.003-0.011,0.007-0.016,0.01c-3.043,0-6.363-0.011-8.964,0.006
	c-4.678,0.029-8.541,0.093-11.243,0.211c-1.352,0.059-2.412,0.13-3.155,0.222c-0.372,0.046-0.66,0.096-0.893,0.162
	c-0.117,0.034-0.642,0.367-0.642,0.652c0,0.242,0.529,0.852,0.712,0.964c0.367,0.222,0.855,0.425,1.483,0.639
	c1.255,0.43,3.068,0.884,5.403,1.367c4.568,0.947,11.155,2.003,19.301,3.112c0,0.006,0,0.013,0,0.019v3.039
	c-0.001,0.03,0.001,0.06,0.006,0.09h-61.71c0-0.007,0-0.013,0-0.02v-23.386h135.479V456.279z M187.925,455.901h-79.352v-41.034
	c0.02-0.028,0.037-0.058,0.051-0.09h79.302V455.901z M160.616,418.348h-22.967c-1.155,0-2.102,0.947-2.102,2.101v3.207
	c0,1.155,0.948,2.102,2.102,2.102h22.967c1.155,0,2.1-0.948,2.1-2.102v-3.207C162.716,419.295,161.77,418.348,160.616,418.348z
	 M292.722,341.904c-1.573,0-2.858,1.287-2.858,2.861c0,1.572,1.284,2.858,2.858,2.858s2.858-1.285,2.858-2.858
	C295.579,343.192,294.295,341.904,292.722,341.904z M308.73,341.904c-1.572,0-2.86,1.287-2.86,2.861c0,1.572,1.287,2.858,2.86,2.858
	c1.573,0,2.859-1.285,2.859-2.858C311.588,343.192,310.303,341.904,308.73,341.904z M292.722,322.21
	c-1.573,0-2.858,1.284-2.858,2.858c0,1.573,1.284,2.858,2.858,2.858s2.858-1.284,2.858-2.858
	C295.579,323.495,294.295,322.21,292.722,322.21z M308.73,322.21c-1.572,0-2.86,1.284-2.86,2.858c0,1.573,1.287,2.858,2.86,2.858
	c1.573,0,2.859-1.284,2.859-2.858C311.588,323.495,310.303,322.21,308.73,322.21z M292.722,300.334
	c-1.573,0-2.858,1.285-2.858,2.859c0,1.572,1.284,2.86,2.858,2.86s2.858-1.287,2.858-2.86
	C295.579,301.619,294.295,300.334,292.722,300.334z M308.73,300.334c-1.572,0-2.86,1.285-2.86,2.859c0,1.572,1.287,2.86,2.86,2.86
	c1.573,0,2.859-1.287,2.859-2.86C311.588,301.619,310.303,300.334,308.73,300.334z M417.879,125.098h3.954
	c0.821,0,1.478,0.657,1.478,1.478v49.571c-0.001,0.056,0.008,0.112,0.026,0.164c-1.431-0.239-2.898-0.371-4.398-0.371
	c-0.953,0-1.894,0.052-2.821,0.151c0.174-0.085,0.281-49.515,0.281-49.515C416.4,125.755,417.058,125.098,417.879,125.098z
	 M474.808,125.098h3.954c0.821,0,1.478,0.657,1.478,1.478v49.571c-0.001,0.056,0.008,0.112,0.026,0.164
	c-1.431-0.239-2.898-0.371-4.398-0.371c-0.953,0-1.894,0.052-2.821,0.151c0.174-0.085,0.281-49.515,0.281-49.515
	C473.328,125.755,473.987,125.098,474.808,125.098z"></path>
<path id="color_x5F_2" fill-rule="evenodd" clip-rule="evenodd" fill="#FBC02D" d="M295.395,446.789
	c5.956,0.014,12.376,0.038,18.909,0.051c12.886,0.024,24.719,0.065,33.322,0.224c4.302,0.08,7.797,0.189,10.207,0.338
	c1.128,0.07,1.965,0.152,2.575,0.239c-0.23,0.083-0.398,0.159-0.72,0.252c-1.133,0.326-2.798,0.696-4.836,1.094
	c-4.077,0.796-9.661,1.706-15.643,2.654c-11.481,1.82-41.032,1.563-48.316,0.577c-8.387-1.136-15.13-2.215-19.757-3.174
	c-2.314-0.479-4.101-0.931-5.283-1.334c-0.481-0.165-0.786-0.312-1.05-0.448c0.076-0.012,0.101-0.023,0.189-0.033
	c0.691-0.086,1.738-0.159,3.077-0.217c2.677-0.117,6.531-0.18,11.204-0.209C283.947,446.771,289.439,446.775,295.395,446.789z
	 M378.844,444.52c0.746-0.011,1.872,0.027,3.304,0.101c2.866,0.148,6.971,0.439,11.894,0.763c9.846,0.648,22.965,1.429,36.048,1.455
	c12.906,0.024,25.761-0.708,35.385-1.324c4.812-0.309,8.817-0.587,11.611-0.728c1.396-0.07,2.492-0.106,3.219-0.094
	c0.043,0.001,0.053,0.005,0.093,0.006c-0.081,0.045-0.11,0.077-0.209,0.125c-0.648,0.316-1.65,0.684-2.949,1.072
	c-2.597,0.773-6.387,1.628-11.071,2.422c-3.244,0.55-6.943,1.067-10.953,1.512c-0.067-0.03-0.14-0.046-0.213-0.045
	c-0.109,0.001-0.213,0.038-0.299,0.104c-7.451,0.809-16.019,1.359-25.147,1.359c-8.101,0-15.741-0.452-22.573-1.136
	c-0.072-0.199-0.264-0.331-0.475-0.328c-0.171,0.002-0.33,0.092-0.419,0.238c-4.868-0.506-9.316-1.125-13.14-1.791
	c-4.683-0.815-8.472-1.694-11.069-2.483c-1.299-0.395-2.303-0.769-2.951-1.089c-0.104-0.051-0.134-0.085-0.219-0.133
	C378.767,444.525,378.782,444.521,378.844,444.52z M364.008,431.875H228.529v-6.197h135.479V431.875z M363.952,424.678h-83.064
	v-28.102c8.088-1.491,13.484-4.044,13.484-4.044c0.14-0.06,0.246-0.181,0.286-0.328c0,0,0.642,0.963,0.885,0.881
	c0,0,44.247-14.639,68.369-24.866L363.952,424.678z M202.19,231.681h-25.635c0.097-2.449,0.163-3.971,0.171-4.153l26.013,0.195
	l0.699,62.04c0.003,0.272,0.228,0.493,0.499,0.493c0.224,0,0.422-0.152,0.481-0.369c0,0,3.941-14.478,8.936-28.229
	c2.468-6.795,6.078-10.46,9.056-12.446c2.67-1.781,5.307-2.208,5.403-2.232l42.829-10.244c-0.115,0.767-0.207,1.646-0.184,2.724
	c0.064,3.029,0.943,7.172,4.149,11.619c6.346,8.796,14.178,11.624,14.255,11.652l1.478,2.51l-9.947-0.136c-0.002,0-0.004,0-0.005,0
	c-0.275,0-0.5,0.225-0.5,0.499v104.864c-0.957,0.14-7.229,1.207-8.953,1.631c-0.863,0.212-3.313,1.087-3.637,1.437
	c-0.491,0.532-0.978,1.563-0.512,2.73c0.58,1.453,4.426,2.667,5.373,2.884c-2.032,0.236-4.76,0.606-7.976,1.297
	c-2.718,0.584-5.489,1.354-7.712,2.37c-2.222,1.016-3.96,2.275-4.407,4.017c-0.381,1.487,0.045,2.997,1.038,4.333
	c0.993,1.334,2.543,2.53,4.503,3.527c3.919,1.994,9.494,3.192,15.616,2.827c2.357-0.141,4.591-0.417,6.667-0.767v27.923h-51.295
	l-0.266-119.023c0-0.002,0-0.004,0-0.006c0-0.274-1.022-0.125-1.045-0.072c0,0-4.41,9.298-9.824,18.501
	c-1.269,2.156-4.099,4.309-7.718,6.071c-3.619,1.762-8.015,3.151-12.393,3.905c-4.378,0.753-8.739,0.869-12.27,0.121
	c-3.531-0.748-6.186-2.33-7.364-4.943c-0.574-1.273-1.083-3.917-1.453-7.464c-0.372-3.547-0.626-8.018-0.792-13.074
	c-0.332-10.112-0.303-22.56-0.114-34.657c0.271-17.317,0.85-33.452,1.161-41.358h25.673c0.002,0,0.004,0,0.007,0
	c0.274,0,0.499-0.226,0.499-0.499s-0.226-0.499-0.499-0.499H202.19z M290.843,367.311l10.234,22.665
	c0.027,0.06-5.289,1.973-5.418,2.016l-9.774-22.106L290.843,367.311z M320.776,236.62l43.441,11.921
	c0.081,0.022,0.167,0.023,0.248,0.004c0.01,0.213,0.155,0.397,0.36,0.456c5.794,1.818,9.999,7.227,9.999,13.627v89.294
	c0,0.005,0,0.01,0,0.015c0,0,0.349,10.313-9.045,14.406c-18.596,8.102-50.849,19.16-63.75,23.508
	c0.015-0.097-10.296-23.003-10.296-23.003l49.89-25.905c0.165-0.086,0.27-53.961,0.27-53.961c0-0.002,0-0.005,0-0.007
	c0-0.274-0.226-0.499-0.499-0.499c-0.275,0-0.499,0.226-0.499,0.499c0,0.002,0,0.005,0,0.007v53.214l-55.884,29.018
	c-0.215,0.113-0.318,0.368-0.242,0.599c-0.183,0.021-1.695,0.205-3.878,0.512V266.112l10.047,0.138l1.138,1.93
	c-0.161,0.038-0.292,0.153-0.352,0.307l-6.906,18.003c-0.038,0.098-0.044,0.205-0.017,0.307c0.325,1.239,0.723,2.209,1.225,2.927
	c0.501,0.719,1.138,1.194,1.873,1.318c0.735,0.126,1.506-0.096,2.28-0.569c0.775-0.473,1.576-1.205,2.431-2.182
	c0.038-0.044,0.069-0.094,0.09-0.149c0,0,7.462-18.994,7.462-18.785c0,0.074,0.017,0.147,0.048,0.214l10.111,24.301
	c0.065,0.157,0.206,0.27,0.373,0.3c2.55,0.451,4.607,0.378,6.164-0.322c1.558-0.699,2.554-2.064,2.889-3.923
	c0.018-0.102,0.005-0.207-0.039-0.3l-12.799-27.141c0,0,13.161-11.859,14.017-20.85C321.128,239.469,321.086,237.826,320.776,236.62
	z M418.939,176.939c14.085,0,25.491,11.406,25.491,25.491c0,14.084-11.406,25.49-25.491,25.49c-14.084,0-25.49-11.406-25.49-25.49
	C393.449,188.345,404.856,176.939,418.939,176.939z M475.868,176.939c14.085,0,25.491,11.406,25.491,25.491
	c0,14.084-11.406,25.49-25.491,25.49c-14.084,0-25.49-11.406-25.49-25.49C450.378,188.345,461.784,176.939,475.868,176.939z
	 M294.349,159.022c9.196-0.058,18.39,1.907,27.546,6.053l0.692,11.099c-10.087-3.182-19.665-4.977-29.037-5.096
	c-9.276-0.118-18.35,1.414-27.518,4.836l0.765-10.827C275.96,161.158,285.155,159.08,294.349,159.022z M293.432,99.434
	c7.831-0.089,16.051,1.751,24.736,5.793l3.66,58.734c-9.121-4.053-18.301-5.988-27.481-5.93c-9.179,0.057-18.358,2.102-27.471,5.946
	l4.149-58.763C278.157,101.54,285.601,99.523,293.432,99.434z"></path>
<path id="color_x5F_1" fill="#0984E3" d="M293.395,97.945c-8.16,0.097-15.926,2.207-23.308,6.054
	c-0.308,0.161-0.51,0.469-0.534,0.815l-6.085,86.161c-4.458,1.083-7.929,5.494-7.929,10.311c0,2.867,1.782,5.404,4.083,7.251
	c2.042,1.639,4.516,2.647,6.88,2.951c0.022,0.654,0.151,4.935,0.796,10.345c0.347,2.902,0.826,5.935,1.496,8.532
	c0.461,1.787,0.979,3.36,1.699,4.588c-0.024,0.086-0.05,0.194-0.076,0.297c0,0-45.614,10.566-48.837,12.716
	c-3.224,2.148-7.064,6.107-9.633,13.181c-3.204,8.821-5.502,16.401-7.087,21.836l-0.628-55.768c-0.006-0.54-0.45-0.983-0.991-0.987
	h-0.045c-0.06-0.882-0.164-2.604-0.138-4.762c0.017-1.414,0.101-2.849,0.293-3.909c0.096-0.53,0.501-1.477,0.495-1.48
	c1.699-0.662,3.116-0.976,4.428-1.477c1.323-0.505,2.558-1.284,3.479-2.735c1.074-1.693,1.86-3.736,1.775-5.634
	c-0.042-0.948-0.333-1.9-1.02-2.618c-0.687-0.718-1.718-1.12-2.949-1.163c-1.202-0.042-2.15,0.298-2.79,0.835
	c-0.64,0.537-0.964,1.157-1.274,1.61c-0.311,0.452-0.56,0.748-1.02,0.961c-0.459,0.214-1.212,0.362-2.558,0.2
	c-1.571-0.191-2.238-0.788-2.591-1.592c-0.353-0.805-0.322-1.97,0.096-3.156c0.417-1.188,1.205-2.363,2.134-3.153
	c0.929-0.789,1.965-0.8,2.92-1.043c0.983-0.251,2.221,2.677,2.604,3.564c0.326,0.753,1.47,0.931,2.589,0.915
	c1.461-0.021,2.689-0.753,3.332-1.836c0.643-1.083,0.763-2.429,0.473-3.78c-0.579-2.703-2.86-5.544-6.814-6.707
	c-3.575-1.051-6.734,0.424-8.883,2.067c-0.566,0.433-0.892,0.828-1.33,1.256c0.224-1.6,0.68-16.445-1.684-19.556
	c-1.136-1.494-2.644-2.205-4.12-2.027c-1.476,0.179-9.169,8.326-11.531,11.587c-1.127,1.557-1.762,4.076-2.296,7.343
	c-0.533,3.266-0.892,7.248-1.126,11.5c-0.467,8.5-0.432,18.073-0.246,24.991c-0.119,0.16-0.188,0.352-0.197,0.55
	c0,0-1.124,30.002-1.389,47.035c-0.189,12.11-0.22,24.574,0.114,34.729c0.166,5.078,0.422,9.576,0.799,13.181
	c0.378,3.606,0.832,6.27,1.578,7.924c1.432,3.175,4.616,4.986,8.42,5.792c3.804,0.806,8.319,0.668,12.834-0.11
	c4.516-0.777,9.028-2.198,12.796-4.034c3.769-1.835,6.818-4.05,8.352-6.658c3.436-5.841,6.317-11.435,8.089-14.98l0.19,145.921
	h-37.607v-41.503c0-0.547-0.45-0.999-0.999-0.999h-1.927c0.008-0.165,0.025-0.4,0.084-0.803c0.127-0.876,0.431-2.317,1.151-4.472
	c0.273-0.817,8.942-11.44,9.586-13.046c0.322-0.804,0.509-1.622,0.442-2.449c-0.067-0.827-0.423-1.648-1.056-2.295
	c-1.179-1.21-2.694-1.518-3.991-1.313c-1.296,0.205-4.996,1.774-4.97,1.355c0.058-0.941,0.838-2.283,1.984-3.809
	c1.146-1.526,5.569-9.404,5.236-11.898c-0.333-2.495-1.759-5.134-4.718-7.91c-1.498-1.405-2.841-2.253-4.142-2.591
	c-0.65-0.168-3.054,0.264-3.539,0.605c-1.936,1.363-5.304,16.694-5.419,17.295c-0.031-0.589-0.575-12.283-4.606-11.936
	c-3.126,0.269-4.935,14.186-5.071,15.596c-4.09-4.423-9.937-7.198-16.422-7.198c-9.228,0-17.156,5.614-20.57,13.612l-1.875-5.058
	c-0.143-0.385-0.51-0.645-0.921-0.652c-0.03,0-0.06,0.002-0.09,0.004l-2.561,0.19c-0.519,0.038-0.926,0.475-0.926,0.996
	c0,0.135,0.028,0.269,0.081,0.393l1.947,4.565c-1.074,0.165-2.124,0.406-3.142,0.717c-8.921,2.732-15.453,10.901-15.788,20.618
	c-0.083,0.148-0.127,41.986-0.127,41.986H96.592c-2.692,0-4.896,2.205-4.896,4.896v7.794c0,2.692,2.204,4.896,4.896,4.896h398.896
	c2.692,0,4.896-2.204,4.896-4.896v-7.794c0-2.691-2.204-4.896-4.896-4.896h-39.479v-4.534c3.792-0.432,7.31-0.926,10.412-1.451
	c4.727-0.801,8.558-1.663,11.246-2.464c1.344-0.401,2.399-0.78,3.178-1.159c0.389-0.19,2.657-3.617-3.835-2.882
	c-2.807,0.318-6.825,0.42-11.633,0.728c-2.519,0.161-5.277,0.33-8.179,0.491c0.108-0.566,0.217-1.299,0.24-2.122
	c0.05-1.772-0.271-4.043-2.027-5.562c-1.591-1.375-3.262-1.736-4.867-1.652c-1.605,0.084-3.183,0.495-5.168,0.609
	c-0.219,0.012-9.012,3.346-10.107,7.582c-0.089-0.654-0.202-1.352-0.383-2.061c-0.269-1.052-0.617-2.083-1.35-2.86
	c-0.367-0.389-0.876-0.714-1.478-0.79c-0.602-0.077-1.221,0.102-1.783,0.446c-0.001,0-0.001,0-0.002,0
	c-0.889,0.543-1.76,1.199-2.11,1.182c-0.701-0.032-15.528-1.192-17.167-0.592c-1.639,0.598-2.325,1.398-5.097,2.256
	c-2.942,0.911-4.59,1.664-5.552,2.234c-0.481,0.285-0.792,0.524-1.003,0.725c-0.106,0.101-0.187,0.193-0.25,0.276
	c-0.005,0.007-0.006,0.011-0.012,0.019c-1.677-0.104-3.411-0.209-4.943-0.31c-4.919-0.325-9.022-0.616-11.915-0.765
	c-1.446-0.075-2.596,0.026-3.404-0.103c-2.536-0.408-2.556,2.477-0.551,2.982c0.84,0.212,1.833,0.77,3.177,1.179
	c2.69,0.817,6.519,1.701,11.246,2.524c3.752,0.653,8.086,1.262,12.826,1.765v4.308h-40.012l-0.097-87.651
	c0.312-0.134,0.662-0.277,0.967-0.41c10.254-4.468,9.945-15.827,9.945-15.827V262.63c0-7.056-4.641-13.048-11.049-15.058
	c-0.02-0.006-44.501-12.506-44.501-12.506c-0.237-0.52-0.401-0.776-0.472-0.88c0.604-1.18,0.952-2.745,1.291-4.59
	c0.457-2.481,0.773-5.423,0.996-8.258c0.414-5.285,0.467-9.529,0.477-10.169c2.177-0.405,4.339-1.403,6.054-2.975
	c1.945-1.784,3.353-4.204,3.353-6.908c0-3.987-2.275-7.772-5.593-9.55c0.985-0.328,1.839-0.709,2.544-1.15
	c2.3-1.434,3.129-3.607,2.734-5.506c-0.396-1.901-1.789-3.49-3.508-4.405c-0.859-0.458-1.835-0.745-2.821-0.767
	c-0.499-0.011-1.002,0.046-1.492,0.182l-4.692-75.268c-0.023-0.363-0.242-0.686-0.571-0.841
	C310.111,99.768,301.555,97.849,293.395,97.945z M293.454,99.937c7.666-0.085,15.712,1.703,24.234,5.629l3.592,57.618
	c-8.934-3.855-17.936-5.703-26.934-5.647c-8.999,0.055-17.994,2.013-26.914,5.676l4.073-57.668
	C278.503,101.98,285.787,100.022,293.454,99.937z M417.879,123.6c-1.632,0-2.977,1.344-2.977,2.976v49.06
	c0,0.035,0.002,0.071,0.006,0.107c-12.985,1.949-22.956,13.162-22.956,26.687c0,14.894,12.094,26.988,26.988,26.988
	c14.894,0,26.989-12.094,26.989-26.988c0-12.878-9.044-23.657-21.119-26.341v-49.513c0-1.632-1.344-2.976-2.976-2.976H417.879z
	 M474.808,123.6c-1.632,0-2.977,1.344-2.977,2.976v49.06c0,0.035,0.002,0.071,0.006,0.107
	c-12.984,1.949-22.956,13.162-22.956,26.687c0,14.894,12.094,26.988,26.988,26.988c14.894,0,26.989-12.094,26.989-26.988
	c0-12.878-9.044-23.657-21.119-26.341v-49.513c0-1.632-1.344-2.976-2.976-2.976H474.808z M417.879,125.597h3.954
	c0.55,0,0.979,0.428,0.979,0.979v49.146c-1.264-0.183-2.557-0.282-3.872-0.282c-0.687,0-1.366,0.034-2.041,0.084v-48.948
	C416.899,126.026,417.327,125.597,417.879,125.597z M474.808,125.597h3.954c0.55,0,0.979,0.428,0.979,0.979v49.146
	c-1.264-0.183-2.557-0.282-3.872-0.282c-0.687,0-1.365,0.034-2.041,0.084v-48.948C473.828,126.026,474.256,125.597,474.808,125.597z
	 M294.351,159.515c9.033-0.057,18.061,1.864,27.067,5.899l0.628,10.072c-9.869-3.056-19.28-4.787-28.493-4.904
	c-9.088-0.115-17.991,1.352-26.967,4.605l0.689-9.755C276.291,161.603,285.323,159.572,294.351,159.515z M293.543,172.565
	c9.208,0.119,18.639,1.893,28.635,5.049l0.274,4.39c0.026,0.528,1.865,0.627,1.97,0.177c1.011-0.477,2.185-0.331,3.287,0.256
	c1.241,0.661,2.248,1.89,2.49,3.051c0.242,1.162-0.053,2.294-1.834,3.406c-1.781,1.112-5.14,2.017-10.632,2.031
	c-22.067,0.06-42.031-10.586-42.031-10.586c-0.318-0.17-0.702-0.156-1.007,0.037c0,0-0.266,0.198-0.458,0.438
	c-0.193,0.242-0.423,0.597-0.688,1.138c-0.529,1.081-1.191,2.903-1.879,6.073c-0.305,1.404-0.811,2.174-1.332,2.626
	c-0.521,0.45-1.101,0.623-1.719,0.657c-1.237,0.069-2.905-0.634-3.13-0.581l0.944-13.365
	C275.475,173.967,284.4,172.448,293.543,172.565z M190.883,172.991c0.198-0.024,1.651,0.41,2.29,1.252
	c1.614,2.124,1.001,21.025,1.001,21.025c-0.009,0.055,0.437,1.165,0.985,1.165c0.33,0,0.637-0.162,0.824-0.433
	c0,0,1.138-1.649,3.007-3.078c1.87-1.429,4.32-2.558,7.109-1.738c3.309,0.973,5.009,3.281,5.422,5.211
	c0.207,0.965,0.077,1.807-0.24,2.341c-0.317,0.533-0.76,0.845-1.641,0.858c-0.77,0.011-1.389-0.78-1.544-1.303
	c-0.156-0.523-0.334-1.214-0.845-1.859c-0.512-0.645-1.368-1.14-2.501-1.297c-1.675-0.234-3.252,0.448-4.489,1.5
	c-1.238,1.052-2.188,2.486-2.726,4.013c-0.536,1.526-0.673,3.177-0.041,4.619c0.632,1.441,2.102,2.522,4.181,2.774
	c1.578,0.191,2.742,0.047,3.64-0.371c0.899-0.417,1.447-1.092,1.827-1.645c0.379-0.552,0.631-0.975,0.911-1.21
	c0.279-0.234,0.587-0.398,1.433-0.369c0.864,0.03,1.302,0.262,1.576,0.548c0.275,0.287,0.441,0.712,0.468,1.326
	c0.055,1.229-0.563,3.053-1.465,4.476c-0.684,1.079-1.392,1.511-2.506,1.937c-1.115,0.425-2.619,0.765-4.488,1.498
	c-0.63,0.248-0.964,0.758-1.196,1.264c-0.232,0.506-0.378,1.077-0.491,1.707c-0.228,1.26-0.309,2.766-0.326,4.241
	c-0.026,2.121,0.067,3.783,0.133,4.769l-23.759-0.177c-0.178-6.849-0.204-16.201,0.252-24.486c0.232-4.208,0.587-8.136,1.103-11.287
	c0.515-3.151,1.264-5.557,1.943-6.494C183.118,180.473,190.095,173.086,190.883,172.991z M418.939,177.438
	c13.814,0,24.992,11.177,24.992,24.992c0,13.814-11.177,24.991-24.992,24.991s-24.991-11.176-24.991-24.991
	C393.949,188.616,405.125,177.438,418.939,177.438z M475.868,177.438c13.814,0,24.992,11.177,24.992,24.992
	c0,13.814-11.177,24.991-24.992,24.991c-13.814,0-24.991-11.176-24.991-24.991C450.878,188.616,462.054,177.438,475.868,177.438z
	 M275.55,182.479c2.092,1.088,20.752,10.501,42.189,10.442c1.988-0.005,3.716-0.123,5.24-0.326c0.122,0.061,0.255,0.096,0.391,0.104
	c3.806,0.366,7.104,4.389,7.104,8.587c0,2.003-1.071,3.935-2.706,5.435c-1.635,1.499-3.815,2.514-5.763,2.702
	c-0.504,0.048-0.896,0.473-0.903,0.981c0,0-0.068,5.188-0.507,10.776c-0.219,2.795-0.531,5.689-0.967,8.053
	c-0.436,2.364-1.128,4.242-1.534,4.693c-2.131,2.367-6.243,4.934-10.604,6.834c-4.36,1.9-9.011,3.15-12.098,3.15
	c-4.783,0-11.704-2.262-17.047-5.224c-0.164-0.204-0.401-0.336-0.66-0.368c-1.842-1.067-3.468-2.214-4.708-3.373
	c-0.116-0.108-0.54-0.954-0.769-1.118c-0.525-0.96-1.057-2.326-1.478-3.962c-0.634-2.453-1.106-5.418-1.446-8.269
	c-0.68-5.7-0.84-10.928-0.84-10.928c-0.016-0.522-0.439-0.949-0.962-0.968c-2.03-0.075-4.617-1.126-6.608-2.724
	c-1.99-1.597-3.335-3.68-3.335-5.692c0-4.323,3.747-8.419,7.774-8.57c0.064,0,1.924,0.666,3.418,0.583
	c0.945-0.052,2.012-0.357,2.916-1.139c0.904-0.783,1.604-2.003,1.976-3.714c0.665-3.063,1.296-4.748,1.723-5.618
	C275.44,182.63,275.477,182.6,275.55,182.479z M287.511,226.581c-0.545,0.004-0.992,0.453-0.992,0.999
	c0,0.343,0.176,0.662,0.465,0.845c0,0,1.586,1.01,4.431,1.496c2.845,0.486,7.033,0.501,12.481-1.263
	c0.417-0.129,0.705-0.517,0.705-0.955c0-0.548-0.451-0.999-0.999-0.999c-0.11,0-0.219,0.018-0.324,0.053
	c-5.159,1.672-8.995,1.629-11.529,1.196c-2.533-0.432-3.675-1.202-3.675-1.202C287.909,226.639,287.712,226.58,287.511,226.581z
	 M177.206,228.032l25.04,0.187c0,0-0.026,2.963-0.056,2.963h-25.114C177.132,229.82,177.195,228.284,177.206,228.032z
	 M202.303,233.173l0.636,56.595c0.007,0.543,0.455,0.986,0.999,0.986c0.448,0,0.845-0.303,0.963-0.736c0,0,3.94-14.466,8.925-28.191
	c2.434-6.701,5.966-10.268,8.862-12.199c2.414-1.61,47.354-12.233,47.354-12.233c-0.062,0.619-0.098,1.315-0.082,2.075
	c0.066,3.115,0.978,7.371,4.245,11.902c6.04,8.372,13.373,11.397,14.317,11.761l0.94,1.598l-9.059-0.125c-0.004,0-0.009,0-0.013,0
	c-0.548,0-1,0.45-1,0.999v104.437c-0.841,0.125-1.711,0.257-2.61,0.404c-2.082,0.344-4.219,0.74-5.965,1.169
	c-0.874,0.215-3.436,1.103-3.882,1.586c-0.54,0.585-0.89,1.223-0.964,1.907c-0.074,0.683,0.165,1.341,0.53,1.837
	c0.732,0.993,1.883,1.564,3.084,2.04c0.061,0.025,0.07,0.012,0.131,0.035c-1.74,0.248-3.556,0.495-5.636,0.943
	c-2.738,0.588-5.533,1.361-7.812,2.403c-2.279,1.042-4.171,2.344-4.683,4.347c-0.422,1.648,0.065,3.332,1.122,4.753
	c1.057,1.422,2.666,2.654,4.675,3.676c4.019,2.045,9.667,3.25,15.872,2.88c2.158-0.129,4.211-0.373,6.139-0.679v26.838h-50.298
	l-0.264-118.526c0-0.004,0-0.007,0-0.011c0-0.548-0.45-0.999-0.999-0.999c-0.005,0-0.011,0-0.017,0
	c-0.351,0.007-0.672,0.197-0.847,0.501c-0.053,0.067-0.098,0.141-0.133,0.22c0,0-4.404,9.283-9.804,18.463
	c-1.181,2.007-3.936,4.136-7.505,5.874c-3.569,1.737-7.928,3.114-12.26,3.86c-4.332,0.745-8.641,0.853-12.081,0.125
	c-3.44-0.729-5.919-2.233-7.012-4.658c-0.517-1.147-1.042-3.782-1.41-7.31c-0.37-3.527-0.627-7.991-0.792-13.04
	c-0.332-10.098-0.301-22.54-0.112-34.632c0.269-17.172,0.832-33.013,1.14-40.866h25.194
	C202.227,233.179,202.265,233.177,202.303,233.173z M318.962,235.887c0.019,0.044,0.831,3.364,0.481,5.508
	c-0.683,4.192-3.669,10.666-13.05,19.35l-6.809-5.665c-0.308-0.454-1.026-1.378-2.294-2.37c11.012-4.93,18.121-13.79,18.121-13.79
	C315.482,238.835,318.009,236.834,318.962,235.887z M272.163,236.888c1.385,1.208,3.053,2.365,4.9,3.429
	c1.309,1.757,6.78,8.48,16.762,12.644c2.108,0.88,3.102,1.976,3.656,2.698l-8.283,5.324c-0.165-0.036-7.937-3.243-13.373-10.778
	c-3.024-4.195-3.809-8.006-3.868-10.776c-0.022-1.029,0.063-1.84,0.168-2.53L272.163,236.888z M321.439,237.32
	c0,0,42.992,12.085,43.234,12.157c5.59,1.754,9.65,6.971,9.65,13.152v89.294c0,0.01,0,0.02,0,0.031c0,0,0.363,9.964-8.745,13.932
	c-0.461,0.201-0.984,0.415-1.462,0.62c-0.069,0.021-0.135,0.049-0.198,0.084c-18.741,8.001-49.024,18.393-61.546,22.616
	l-9.992-22.13l49.472-25.687c0.33-0.172,0.537-0.514,0.538-0.886v-53.519c0-0.005,0-0.009,0-0.014c0-0.548-0.451-0.999-0.999-0.999
	c-0.548,0-0.999,0.45-0.999,0.999c0,0.005,0,0.009,0,0.014v52.913c0,0-56.032,29.217-56.11,29.475
	c-0.436,0.053-1.288,0.161-2.895,0.383V266.617l9.263,0.129l0.757,1.285c-0.065,0.084-0.117,0.178-0.153,0.278
	c0,0-6.992,18.412-6.939,18.613c0.335,1.274,0.744,2.294,1.297,3.086c0.553,0.793,1.309,1.375,2.198,1.528
	c0.889,0.152,1.786-0.125,2.626-0.638c0.84-0.513,1.669-1.275,2.546-2.278c0.077-0.089,7.044-18.179,7.044-18.179
	s10.242,24.164,10.576,24.222c2.606,0.461,4.757,0.407,6.455-0.357c1.699-0.762,2.82-2.31,3.176-4.29
	c0.037-0.205-12.773-27.522-12.773-27.522c0.003-0.007,0.005-0.014,0.008-0.021c9.815-9.008,13.16-15.936,13.946-20.756
	C321.703,239.955,321.639,238.489,321.439,237.32z M309.707,241.944c-3.213,2.977-14.337,9.45-14.414,9.516
	c-0.231-0.116-0.447-0.24-0.698-0.344c-5.916-2.468-10.098-5.822-12.749-8.426c4.58,1.952,9.535,3.217,13.546,3.217
	c3.603,0,8.362-1.341,12.896-3.316C308.764,242.383,309.238,242.165,309.707,241.944z M298.909,257.115l6.295,5.24l-3.269,5.045
	l-8.617-0.059l-2.837-4.812L298.909,257.115z M306.196,264.496l11.981,25.403c-0.297,1.314-0.876,2.109-1.935,2.585
	c-1.041,0.467-2.683,0.558-4.773,0.254l-9.711-23.341l0.71,0.004c0.341,0.002,0.659-0.171,0.845-0.457L306.196,264.496z
	 M292.999,269.336l5.299,0.035l-6.922,18.027c-0.744,0.835-1.432,1.46-1.982,1.797c-0.578,0.354-0.973,0.417-1.247,0.371
	c-0.273-0.047-0.55-0.203-0.897-0.7c-0.312-0.446-0.622-1.24-0.9-2.196L292.999,269.336z M292.722,299.834
	c-1.843,0-3.357,1.515-3.357,3.358c0,1.842,1.514,3.359,3.357,3.359c1.843,0,3.357-1.517,3.357-3.359
	C296.079,301.349,294.565,299.834,292.722,299.834z M308.73,299.834c-1.842,0-3.359,1.515-3.359,3.358
	c0,1.842,1.517,3.359,3.359,3.359c1.843,0,3.358-1.517,3.358-3.359C312.087,301.349,310.572,299.834,308.73,299.834z
	 M292.722,301.832c0.763,0,1.359,0.596,1.359,1.36c0,0.763-0.596,1.361-1.359,1.361c-0.763,0-1.359-0.598-1.359-1.361
	C291.363,302.428,291.959,301.832,292.722,301.832z M308.73,301.832c0.764,0,1.36,0.596,1.36,1.36c0,0.763-0.596,1.361-1.36,1.361
	c-0.763,0-1.361-0.598-1.361-1.361C307.368,302.428,307.966,301.832,308.73,301.832z M292.722,321.711
	c-1.843,0-3.357,1.514-3.357,3.357s1.514,3.357,3.357,3.357c1.843,0,3.357-1.514,3.357-3.357S294.565,321.711,292.722,321.711z
	 M308.73,321.711c-1.842,0-3.359,1.514-3.359,3.357s1.517,3.357,3.359,3.357c1.843,0,3.358-1.514,3.358-3.357
	S310.572,321.711,308.73,321.711z M292.722,323.708c0.763,0,1.359,0.596,1.359,1.359c0,0.763-0.596,1.359-1.359,1.359
	c-0.763,0-1.359-0.596-1.359-1.359C291.363,324.305,291.959,323.708,292.722,323.708z M308.73,323.708
	c0.764,0,1.36,0.596,1.36,1.359c0,0.763-0.596,1.359-1.36,1.359c-0.763,0-1.361-0.596-1.361-1.359
	C307.368,324.305,307.966,323.708,308.73,323.708z M292.722,341.405c-1.843,0-3.357,1.517-3.357,3.36s1.514,3.357,3.357,3.357
	c1.843,0,3.357-1.514,3.357-3.357S294.565,341.405,292.722,341.405z M308.73,341.405c-1.842,0-3.359,1.517-3.359,3.36
	s1.517,3.357,3.359,3.357c1.843,0,3.358-1.514,3.358-3.357S310.572,341.405,308.73,341.405z M292.722,343.402
	c0.763,0,1.359,0.599,1.359,1.362c0,0.763-0.596,1.359-1.359,1.359c-0.763,0-1.359-0.596-1.359-1.359
	C291.363,344.002,291.959,343.402,292.722,343.402z M308.73,343.402c0.764,0,1.36,0.599,1.36,1.362c0,0.763-0.596,1.359-1.36,1.359
	c-0.763,0-1.361-0.596-1.361-1.359C307.368,344.002,307.966,343.402,308.73,343.402z M183.716,366.285
	c0.413-0.29,1.683-0.355,1.887-0.302c0.818,0.212,1.926,0.846,3.275,2.112c2.737,2.567,3.847,4.776,4.107,6.719
	c0.259,1.942-3.661,8.843-4.854,10.434c-1.194,1.591-2.271,3.12-2.379,4.884c-0.047,0.756-0.023,1.337,0.232,1.897
	c0.255,0.558,0.946,0.989,1.504,1.001c1.116,0.023,4.687-2.022,5.538-2.155c0.851-0.135,1.497-0.04,2.251,0.733
	c0.334,0.343,0.432,1.995,0.187,2.606c-0.49,1.224-9.163,11.774-9.625,13.158c-0.749,2.247-1.32,5.637-1.328,5.907h-14.929
	c2.414-3.572,3.839-7.87,3.839-12.498c0-4.935-1.61-9.498-4.327-13.201c0.136-0.16,2.416-14.665,3.505-14.967
	c1.516-0.421,2.33,4.994,2.447,7.65c0.058,1.327,0.058,2.519,0.219,3.484c0.08,0.482,1.679,2.046,2.229,1.881
	c0.592-0.178,1.278-1.651,1.389-2.083c0.221-0.865,0.398-1.963,0.587-3.215C179.845,377.823,182.617,367.06,183.716,366.285z
	 M290.606,367.999l9.865,21.846c-1.678,0.562-4.339,1.458-4.541,1.526l-9.397-21.258L290.606,367.999z M363.413,368.975l0.04,55.204
	h-82.065v-27.187c7.761-1.481,12.868-3.857,13.092-3.962c0.212,0.458,0.739,0.688,1.219,0.53
	C295.699,393.56,339.1,379.207,363.413,368.975z M284.879,371.312l8.793,19.894c-0.163,0.077-8.778,4.116-20.539,4.82
	c-5.872,0.351-11.223-0.824-14.845-2.667c-1.812-0.921-3.182-2.011-3.982-3.086c-0.799-1.075-1.045-2.064-0.788-3.066
	c0.246-0.961,1.528-2.087,3.58-3.026c2.052-0.938,4.746-1.695,7.403-2.266c5.315-1.142,10.47-1.559,10.47-1.559
	c0.514-0.043,0.915-0.478,0.915-0.995c0-0.489-0.36-0.91-0.843-0.987c0,0-2.631-0.417-4.723-1.247
	c-1.046-0.415-2.379-1.666-2.364-1.807c0.015-0.14,2.51-1.564,3.338-1.767c1.657-0.408,3.757-0.799,5.811-1.138
	C281.001,371.775,284.503,371.356,284.879,371.312z M151.046,380.406c11.255,0,20.376,9.119,20.376,20.374
	c0,4.719-1.618,9.044-4.312,12.498h-15.988c0.174-5.462-1.835-9.99-4.76-13.369c-3.08-3.557-7.145-5.879-10.858-6.906
	c-0.077-0.021-2.528-0.543-3.02-0.608C135.684,385.333,142.785,380.406,151.046,380.406z M126.991,388.362l1.437,3.88
	c-0.071,0.003-0.142,0.003-0.213,0.008l-1.644-3.857L126.991,388.362z M129.539,394.197c0.365,0,1.526,0.142,1.744,0.082
	c1.003,0.085,1.983,0.245,2.938,0.47c0.46,0.478,3.583,4.386,3.807,4.814c-3.26-0.796-6.061-3.332-6.061-3.332
	c-0.186-0.178-0.863-0.369-1.104,0.073c-0.262,0.481-0.258,5.685-0.886,5.384c-1.225-0.586-1.819-5.35-2.87-5.518
	c-0.678-0.108-7.281,4.161-7.914,3.548c-1.017-0.983,4.129-4.555,4.38-4.632C125.46,394.508,127.462,394.197,129.539,394.197z
	 M138.105,396.125c2.404,1.15,4.812,2.857,6.748,5.092c2.66,3.071,4.45,7.086,4.271,12.061h-39.904
	c0.391-6.224,3.575-11.684,8.314-15.152c-0.048,0.108-0.476,2.277,0.692,2.922c2.34,1.292,8.165-2.477,8.171-2.457
	c0.375,1.241,0.59,2.841,2.026,4.275c0.41,0.41,0.832,0.722,1.397,0.808c0.565,0.086,1.176-0.205,1.494-0.563
	c0.636-0.719,0.745-1.559,0.86-2.447c0.104-0.803,0.044-1.019,0.047-1.707c1.336,1.013,3.249,2.233,5.915,2.724
	c0.613,0.113,1.24,0.156,1.793-0.334c0.276-0.245,0.432-0.608,0.469-0.911c0.038-0.303-0.007-0.559-0.072-0.798
	c-0.259-0.956-0.9-1.838-1.639-2.8C138.501,396.598,138.301,396.365,138.105,396.125z M109.072,415.276h78.354v40.125h-78.354
	V415.276z M160.616,417.849h-22.967c-1.425,0-2.602,1.176-2.602,2.601v3.207c0,1.425,1.177,2.602,2.602,2.602h22.967
	c1.425,0,2.6-1.177,2.6-2.602v-3.207C163.215,419.024,162.041,417.849,160.616,417.849z M137.649,419.846h10.178
	c-0.477,1.37-1.911,4.366-1.928,4.415h-8.25c-0.345,0-0.604-0.26-0.604-0.604v-3.207
	C137.044,420.107,137.304,419.846,137.649,419.846z M149.931,419.846h10.685c0.345,0,0.602,0.261,0.602,0.603v3.207
	c0,0.345-0.258,0.604-0.602,0.604h-12.497C148.87,422.746,149.472,421.273,149.931,419.846z M229.028,426.177h134.48v5.199h-134.48
	V426.177z M229.028,433.373h134.48v22.407h-23.286v-2.63c0-0.053-0.004-0.106-0.012-0.158c5.681-0.902,10.994-1.769,14.927-2.536
	c2.059-0.402,3.74-0.799,4.963-1.126c3.516-0.939,1.056-3.103,0.706-3.156c-0.698-0.106-1.655-0.192-2.882-0.268
	c-2.453-0.152-5.96-0.26-10.273-0.34c-2.093-0.038-4.876-0.053-7.317-0.08c-0.058-0.1-0.132-0.189-0.221-0.263
	c-3.215-2.853-7.593-4.013-11.798-3.125c-0.001,0-0.002,0-0.002,0c-2.571,0.543-4.863,1.027-4.988,1.053l-12.606-0.813
	c-0.084-0.024-0.881-0.249-2.13-0.603c-1.476-0.417-2.981-0.689-4.489-0.811c-4.525-0.368-9.092,0.588-13.131,2.8
	c0,0-0.001,0-0.002,0c-1.63,0.893-2.786,1.528-2.866,1.572c-2.995,0-6.274-0.011-8.839,0.006c-4.68,0.029-8.547,0.092-11.263,0.211
	c-1.358,0.059-2.424,0.131-3.193,0.226c-0.385,0.048-1.975,0.769-1.975,1.309c0,0.401,0.743,1.263,0.954,1.39
	c0.422,0.256,0.934,0.464,1.58,0.685c1.294,0.441,3.116,0.899,5.462,1.385c4.505,0.933,10.96,1.969,18.903,3.056v2.214h-60.705
	V433.373z M450.649,437.169c1.306-0.068,2.211,0.093,3.455,1.169c1.081,0.935,1.378,2.52,1.336,3.993
	c-0.031,1.103-0.206,1.872-0.31,2.28c-5.667,0.3-11.805,0.558-18.164,0.667c0.301-4.098,8.281-7.49,8.521-7.502
	c0.001,0,0.002,0,0.002,0C447.677,437.652,449.342,437.238,450.649,437.169z M429.688,440.876c1.916-1.825,5.136,2.453,3.772,4.448
	c-1.122,0.009-2.244,0.02-3.369,0.018c-9.673-0.019-19.371-0.452-27.757-0.941c0.888-0.417,2.189-0.938,4.155-1.546
	c3.013-0.933,3.983-1.847,5.194-2.288c1.21-0.442,15.216,0.657,16.386,0.711C428.655,441.305,429.32,441.226,429.688,440.876z
	 M301.871,442.85c2.068-0.033,4.149,0.234,6.174,0.807c1.313,0.373,2.237,0.634,2.237,0.634c0.068,0.019,13.053,0.864,13.053,0.864
	c0.09,0.006,0.182,0,0.271-0.019c0,0,2.482-0.524,5.123-1.083c2.871-0.606,5.824-0.077,8.299,1.398
	c-6.877-0.058-14.375-0.095-22.721-0.111c-7.791-0.015-15.144-0.038-22.021-0.049C295.271,443.729,298.555,442.902,301.871,442.85z
	 M381.571,445.104c0.223,0.01,0.31,0.005,0.55,0.017c2.857,0.148,6.964,0.438,11.888,0.763c9.849,0.648,22.977,1.429,36.079,1.455
	c12.926,0.024,25.791-0.71,35.418-1.326c4.814-0.309,8.821-0.588,11.605-0.728c0.166-0.008,0.222-0.004,0.379-0.012
	c-0.164,0.052-0.217,0.091-0.392,0.143c-2.567,0.764-6.341,1.618-11.011,2.409c-3.2,0.542-6.848,1.051-10.801,1.492
	c-0.095-0.027-16.677,1.432-25.729,1.432c-7.984,0-23.493-1.388-23.666-1.248c-4.759-0.501-9.108-1.109-12.855-1.762
	c-4.668-0.812-8.444-1.688-11.011-2.467C381.823,445.21,381.759,445.164,381.571,445.104z M279.277,447.3
	c4.67-0.03,59.742,0.105,68.339,0.263c4.146,0.077,7.438,0.186,9.822,0.327c-0.871,0.2-1.545,0.385-2.682,0.606
	c-4.064,0.793-9.646,1.702-15.626,2.649c-11.345,1.799-41.05,1.54-48.171,0.576c-8.382-1.135-15.116-2.213-19.723-3.168
	c-1.728-0.359-2.829-0.675-3.918-0.99C267.618,447.547,274.607,447.329,279.277,447.3z M454.011,451.471v4.309h-46.494v-4.11
	c6.705,0.649,14.153,1.077,22.041,1.077C438.397,452.746,446.712,452.235,454.011,451.471z M338.226,453.283v2.497h-46.494v-1.965
	C300.426,454.735,326.194,454.913,338.226,453.283z M96.592,457.777h398.896c1.611,0,2.898,1.289,2.898,2.898v7.794
	c0,1.611-1.287,2.898-2.898,2.898H96.592c-1.611,0-2.898-1.287-2.898-2.898v-7.794C93.693,459.067,94.98,457.777,96.592,457.777z"></path>
</svg>